<svg width="48" height="41" viewBox="0 0 48 41" fill="none" xmlns="http://www.w3.org/2000/svg">
<circle cx="13.5" cy="11.5" r="3.5" stroke="black" stroke-width="4"/>
<path d="M42.6629 23.0434L43.9623 24.5637L47.003 21.9648L45.7035 20.4445L42.6629 23.0434ZM36.5203 9.70053C35.8026 8.86088 34.5402 8.762 33.7005 9.47968C32.8609 10.1974 32.762 11.4598 33.4797 12.2995L36.5203 9.70053ZM45.7035 20.4445L36.5203 9.70053L33.4797 12.2995L42.6629 23.0434L45.7035 20.4445Z" fill="black"/>
<path d="M21.5763 37.9346L22.7669 39.5415L25.9808 37.1603L24.7902 35.5533L21.5763 37.9346ZM14.607 21.8094C13.9494 20.9218 12.6969 20.7355 11.8094 21.393C10.9218 22.0506 10.7355 23.3031 11.393 24.1906L14.607 21.8094ZM24.7902 35.5533L14.607 21.8094L11.393 24.1906L21.5763 37.9346L24.7902 35.5533Z" fill="black"/>
<path d="M14.5617 25.2494L15.8111 23.6877L12.6877 21.1889L11.4383 22.7506L14.5617 25.2494ZM7.43826 27.7506C6.74824 28.6131 6.88809 29.8717 7.75061 30.5617C8.61313 31.2518 9.87172 31.1119 10.5617 30.2494L7.43826 27.7506ZM11.4383 22.7506L7.43826 27.7506L10.5617 30.2494L14.5617 25.2494L11.4383 22.7506Z" fill="black"/>
<line x1="19.6576" y1="31.1924" x2="35.1924" y2="11.3424" stroke="black" stroke-width="4" stroke-linecap="round"/>
<mask id="path-6-inside-1_2_21" fill="white">
<path fill-rule="evenodd" clip-rule="evenodd" d="M8 4H40C42.2091 4 44 5.79086 44 8V25H48V8C48 3.58172 44.4183 0 40 0H8C3.58172 0 0 3.58172 0 8V33C0 37.4183 3.58172 41 8 41H30V37H8C5.79086 37 4 35.2091 4 33V8C4 5.79086 5.79086 4 8 4Z"/>
</mask>
<path d="M44 25H42C42 26.1046 42.8954 27 44 27V25ZM48 25V27C49.1046 27 50 26.1046 50 25H48ZM30 41V43C31.1046 43 32 42.1046 32 41H30ZM30 37H32C32 35.8954 31.1046 35 30 35V37ZM40 2H8V6H40V2ZM46 8C46 4.68629 43.3137 2 40 2V6C41.1046 6 42 6.89543 42 8H46ZM46 25V8H42V25H46ZM44 27H48V23H44V27ZM50 25V8H46V25H50ZM50 8C50 2.47715 45.5228 -2 40 -2V2C43.3137 2 46 4.68629 46 8H50ZM40 -2H8V2H40V-2ZM8 -2C2.47715 -2 -2 2.47715 -2 8H2C2 4.68629 4.68629 2 8 2V-2ZM-2 8V33H2V8H-2ZM-2 33C-2 38.5228 2.47715 43 8 43V39C4.68629 39 2 36.3137 2 33H-2ZM8 43H30V39H8V43ZM32 41V37H28V41H32ZM8 39H30V35H8V39ZM2 33C2 36.3137 4.68629 39 8 39V35C6.89543 35 6 34.1046 6 33H2ZM2 8V33H6V8H2ZM8 2C4.68629 2 2 4.68629 2 8H6C6 6.89543 6.89543 6 8 6V2Z" fill="black" mask="url(#path-6-inside-1_2_21)"/>
<line x1="35.8258" y1="29.8771" x2="44.8771" y2="38.1742" stroke="black" stroke-width="4" stroke-linecap="round"/>
<line x1="44.8771" y1="29.8258" x2="35.8258" y2="38.1229" stroke="black" stroke-width="4" stroke-linecap="round"/>
</svg>