<svg width="60" height="91" viewBox="0 0 60 91" fill="none" xmlns="http://www.w3.org/2000/svg">
<path d="M35.335 77.9042C37.5836 74.8091 39.5588 71.5288 41.7898 68.4248C43.6063 65.9029 45.6521 63.5132 47.5039 60.956C51.6483 55.2331 55.2108 49.1839 57.5917 42.4999C59.5316 37.068 60.6074 31.5391 59.6374 25.825C58.3941 18.4796 54.3026 11.5662 48.5003 6.8927C43.3859 2.77468 37.1603 0.834724 30.7055 0.146919C23.1308 -0.664339 15.6884 1.91934 10.0714 7.02498C5.24791 11.4075 1.88825 17.4743 0.565546 23.8409C-0.801246 30.4368 0.45092 36.9533 2.80533 43.1877C4.02222 46.3886 5.60063 49.422 7.23197 52.429C9.16311 56.0003 11.1295 59.5451 13.2811 62.9841C16.5262 68.1868 20.2297 73.0896 23.6247 78.1952C24.8063 79.9764 25.9703 81.7665 27.1166 83.5654C27.8132 84.6588 29.6297 85.1526 30.5821 84.0151C32.2311 82.0311 33.8095 79.9941 35.335 77.9042C36.0404 76.943 35.4937 75.444 34.5414 74.8885C33.4215 74.2359 32.2311 74.7121 31.5256 75.6821C30.2294 77.4633 28.8714 79.2005 27.4693 80.8935C28.6245 81.0434 29.7796 81.1933 30.9348 81.3432C27.196 75.4792 23.0956 69.871 19.2333 64.0952C15.5826 58.628 12.3641 52.8699 9.35711 47.0323C6.49126 41.4505 4.04866 34.934 4.36611 28.5057C4.48956 26.0454 5.01864 23.6293 5.93572 21.0456C7.08206 17.8094 8.88093 14.7408 11.1648 12.1747C14.8155 8.07433 19.7976 5.08501 25.4235 4.52066C28.4305 4.22085 31.2258 4.55592 34.1181 5.12909C37.1427 5.72872 40.0438 6.67226 42.7245 8.22423C43.4917 8.66513 44.2236 9.15892 44.9378 9.67037C45.0789 9.77618 45.3435 9.97902 45.0525 9.74975C45.3346 9.96139 45.608 10.1906 45.8725 10.4199C47.3187 11.6456 48.659 13.0036 49.8406 14.485C50.987 15.9135 51.9658 17.492 52.8035 19.1145C53.0768 19.6524 53.3326 20.1991 53.5795 20.7458C53.6853 20.9927 53.553 20.6753 53.5354 20.64C53.6148 20.8252 53.6853 21.0103 53.7558 21.1955C53.9851 21.7775 54.1879 22.3595 54.3819 22.9503C55.9339 27.7914 55.9427 32.1122 54.6905 36.9445C52.8652 43.9813 49.4703 50.4625 45.3434 56.4147C43.8179 58.6104 42.213 60.7267 40.5464 62.8254C38.4301 65.4884 36.5254 68.2749 34.656 71.1143C33.6419 72.6663 32.5926 74.1918 31.508 75.6909C30.8113 76.6521 31.3404 78.1511 32.3016 78.7066C33.4303 79.3504 34.6384 78.8742 35.335 77.9042Z" fill="#333333"/>
<path d="M39.4971 47.6319C43.0596 45.5597 46.0489 42.7468 47.7331 38.9286C49.6731 34.5372 50.0346 29.5285 48.5268 24.9432C47.0718 20.5165 43.9061 16.5396 40.1232 13.8501C36.0316 10.9402 30.829 10.1906 25.9526 10.9137C19.0569 11.9278 13.6956 17.2891 11.1736 23.5764C8.52821 30.1899 10.6004 38.0203 15.0271 43.3552C17.3021 46.1064 20.4943 48.1875 23.8539 49.3426C29.0213 51.1151 34.8059 50.3391 39.4971 47.6319C41.9485 46.2122 39.7352 42.4028 37.275 43.8225C34.0299 45.7008 30.0354 46.4415 26.2436 45.4539C23.1661 44.6603 20.7323 43.0377 18.6954 40.8509C18.5278 40.6657 18.3603 40.4805 18.2016 40.2953C18.1046 40.1807 18.0164 40.0573 17.9194 39.9426C18.4044 40.5334 17.8048 39.7751 17.6989 39.6252C16.9494 38.5494 16.2263 37.2796 15.7502 36.1685C14.3746 32.9587 13.9866 29.1229 15.0888 25.6839C15.1682 25.437 15.2563 25.1989 15.3533 24.9608C15.3798 24.8903 15.4063 24.8197 15.4327 24.7492C15.5915 24.3259 15.1946 25.243 15.4063 24.8021C15.5209 24.5816 15.6091 24.3435 15.7237 24.1231C16.2969 22.9327 16.9759 21.7951 17.7783 20.7458C18.4397 19.8728 19.8417 18.4178 20.9616 17.633C22.3108 16.6807 23.7922 15.9312 25.3971 15.5079C25.7586 15.4109 26.1202 15.3403 26.4905 15.2786C26.6051 15.261 27.3899 15.1464 26.9579 15.1993C27.434 15.1464 27.919 15.1022 28.404 15.0758C30.441 14.9788 32.4339 15.1904 34.3738 15.8342C37.901 16.9981 40.8815 19.9698 42.7509 22.9327C44.1354 25.1372 44.9466 27.6679 45.0525 30.2781C45.0701 30.7719 45.0701 31.2657 45.0436 31.7595C45.0348 32.0152 45.0172 32.2709 44.9907 32.5267C44.9819 32.6237 44.9025 33.285 44.9731 32.8C44.8408 33.7965 44.6027 34.7841 44.2853 35.7364C43.0772 39.3695 40.5376 41.9355 37.275 43.8314C34.8235 45.2511 37.0369 49.0605 39.4971 47.6319Z" fill="#333333"/>
<path d="M27.2048 22.8709C27.1166 24.1319 27.1078 25.4017 27.1871 26.6627C27.2224 27.3152 27.293 27.9677 27.3723 28.6203C27.4958 29.5814 27.6104 30.5955 28.3688 31.3009C29.568 32.4296 31.3492 32.315 32.8836 32.2974C34.3209 32.2797 35.7406 32.1298 37.1691 31.9358C37.6718 31.8653 38.2449 31.345 38.483 30.9218C38.7564 30.4456 38.8798 29.749 38.7035 29.2199C38.5271 28.6908 38.2008 28.1706 37.6894 27.906C37.1251 27.6062 36.6136 27.5974 35.9875 27.6856C35.8994 27.7032 35.8024 27.712 35.7142 27.7208C35.9082 27.6944 36.1021 27.6679 36.2961 27.6415C35.3262 27.7649 34.3474 27.8531 33.3686 27.8796C32.4339 27.906 31.4639 27.9325 30.5292 27.8178C30.7232 27.8443 30.9172 27.8707 31.1112 27.8972C31.0054 27.8796 30.9084 27.8531 30.8025 27.8178C30.9789 27.8884 31.1553 27.9677 31.3316 28.0383C31.2699 28.0118 31.2081 27.9854 31.1464 27.9413C31.2963 28.0559 31.4462 28.1706 31.5962 28.2852C31.5344 28.2411 31.4815 28.197 31.4374 28.1441C31.5521 28.294 31.6667 28.4439 31.7813 28.5938C31.7196 28.5056 31.6667 28.4175 31.6226 28.3205C31.6931 28.4968 31.7725 28.6732 31.8431 28.8495C31.7725 28.6291 31.7372 28.4086 31.702 28.1794C31.7284 28.3734 31.7549 28.5674 31.7813 28.7614C31.5256 26.8038 31.4639 24.8373 31.5962 22.8709C31.6755 21.7158 30.5292 20.6135 29.3916 20.6664C28.1483 20.7281 27.2929 21.6364 27.2048 22.8709Z" fill="#333333"/>
<path d="M21.2879 73.7245C17.8048 75.1883 13.625 77.5162 13.9954 81.9693C14.3658 86.4048 18.8717 88.5652 22.7164 89.4029C26.7903 90.2935 31.12 90.1524 35.2027 89.4205C37.1162 89.0766 38.9857 88.4947 40.7228 87.6129C42.4688 86.7311 44.4352 85.3995 45.1583 83.5037C46.9131 78.9359 41.5693 74.8973 37.6188 74.2359C36.4461 74.0419 35.2468 74.5445 34.9029 75.7791C34.6119 76.8372 35.2645 78.2922 36.4461 78.495C37.9804 78.7507 39.4001 79.3768 40.423 80.5849C40.714 80.92 41.2431 81.5372 41.0314 82.0134C40.8286 82.4808 39.9821 82.9393 39.5765 83.195C36.7282 85.0027 33.2275 85.4436 29.9207 85.5671C26.614 85.6905 22.2931 85.5759 19.5331 83.4507C18.5808 82.7189 18.034 81.6519 18.6689 80.5408C19.4273 79.2093 21.1027 78.5479 22.443 77.9836C23.5365 77.525 24.3301 76.5286 23.9862 75.2676C23.7217 74.2271 22.3901 73.2571 21.2879 73.7245Z" fill="#333333"/>
</svg>
