<svg width="68" height="89" viewBox="0 0 68 89" fill="none" xmlns="http://www.w3.org/2000/svg">
<path d="M12.7366 78.4962C8.723 74.4214 5.75674 68.8176 4.46473 63.2903C3.69259 60.0029 3.79197 56.7156 3.92958 53.3671C4.0519 50.332 4.32712 47.3122 4.96165 44.3383C5.74145 40.661 6.957 37.0832 8.55481 33.6811C7.39277 33.5282 6.22309 33.3753 5.06104 33.2224C5.87906 35.2789 7.38513 36.548 9.42635 37.3431C11.2229 38.0388 13.5088 38.4898 15.42 38.3752C17.8512 38.2299 19.8083 36.5709 21.5666 35.0267C23.1797 33.597 24.6017 31.9763 25.8708 30.2332C28.3936 26.7547 30.2743 22.5729 30.9012 18.307C31.4822 14.3545 30.993 10.4326 29.9303 6.60247C29.6016 5.42513 29.2499 4.25545 28.9517 3.07047C28.8218 2.54296 28.8982 3.36863 28.9288 2.90993C28.967 2.3442 28.86 3.08577 28.8982 2.90993C28.8218 3.1928 28.4777 3.56739 28.3325 3.65149C27.8661 3.91142 27.8432 3.83497 28.0343 3.7891C27.4533 3.93436 27.5068 3.84262 27.6979 3.85027C27.0634 3.83498 27.2469 3.7891 27.4915 3.85791C26.5206 3.58269 27.461 3.75852 27.438 3.88084C27.4304 3.91907 27.9655 4.30897 27.5068 3.91143C27.675 4.05668 27.8432 4.19429 28.0037 4.33955C29.0358 5.26459 29.9838 6.28902 30.9318 7.29817C34.0204 10.5779 37.0631 13.8958 40.1134 17.2138C41.7189 18.9568 43.3626 20.6846 44.8687 22.5118C44.9527 22.6111 45.0292 22.7258 45.121 22.8252C44.5246 22.1372 45.5032 23.3451 45.6102 23.4903C46.3365 24.4765 47.0551 25.478 47.7508 26.4948C48.7982 28.0162 49.7997 29.5758 50.7018 31.1812C52.2079 33.857 53.1023 35.9823 53.8515 39.0632C54.4326 41.479 54.7078 43.9407 54.8683 46.4101C54.9448 47.6791 54.983 48.9406 55.0365 50.2097C55.0824 51.4252 55.3423 52.6714 56.4814 53.3365C58.6832 54.6208 61.0608 51.9069 62.5592 50.5613C62.7657 50.3779 62.9721 50.202 63.1708 50.0185C63.5378 49.6898 62.8268 50.2708 63.2243 49.9803C63.9583 49.4452 64.6616 48.8718 65.3649 48.2984C65.6937 48.0308 66.0148 47.7632 66.3435 47.488C66.8175 47.0981 66.183 47.5339 66.5117 47.3734C65.9077 47.6792 65.0515 47.5645 64.524 47.1211C64.5011 47.1058 64.0806 46.3566 64.2106 46.6853C64.0653 46.326 64.2029 46.3871 64.1876 46.563C64.1723 46.7847 64.1953 47.0217 64.1876 47.2434C64.1188 49.2923 63.7442 51.3335 63.4919 53.3671C63.3084 54.8808 63.1403 56.3945 63.0179 57.9158C62.9874 58.2675 62.9644 58.6268 62.9338 58.9785C62.9185 59.139 62.9033 59.2996 62.888 59.4678C62.8574 59.7506 63.0026 58.7109 62.865 59.636C62.8115 59.98 62.758 60.324 62.6968 60.6604C62.0776 64.0319 60.778 67.3116 59.0272 70.2549C58.8208 70.6066 58.5915 70.943 58.3468 71.2717C57.9111 71.8756 57.9875 71.7763 57.4753 72.4031C56.9172 73.0835 56.3362 73.7334 55.7322 74.3679C50.5183 79.8341 43.5384 82.8233 36.1533 83.9777C29.5786 85.0021 22.1477 84.5358 16.3298 81.1949C14.9461 80.4228 13.8528 79.6048 12.7366 78.4962C10.9859 76.7608 8.28724 79.4595 10.0303 81.2026C15.0684 86.2101 22.3846 88.106 29.311 88.2513C36.6044 88.4042 44.1347 86.7146 50.5489 83.1979C55.3347 80.568 59.914 76.4779 62.6204 71.6692C64.4781 68.3742 65.9077 64.7199 66.4888 60.9739C66.8863 58.4586 66.9933 55.8975 67.2991 53.3671C67.5591 51.2188 68.056 48.9788 67.9948 46.8C67.9719 45.9667 67.8419 45.1028 67.2456 44.4759C66.5499 43.7343 65.4949 43.5814 64.6081 44.0478C64.0271 44.3536 63.4996 44.8811 62.995 45.3016C62.2687 45.9055 61.6877 46.3642 61.1984 46.7312C60.6633 47.1364 60.1663 47.5568 59.6694 48.0079C59.0425 48.5736 58.0181 49.7662 57.2307 49.9268C57.567 49.9268 57.9111 49.9268 58.2474 49.9268C59.7076 50.1638 58.6679 50.9742 58.8514 50.3855C58.9355 50.1103 58.8285 49.5904 58.8132 49.2999C58.7902 48.696 58.7673 48.092 58.7367 47.488C58.6679 46.0431 58.5609 44.5982 58.3927 43.1533C58.0945 40.6075 57.6511 38.0847 56.8484 35.6459C55.8851 32.7255 54.509 29.9809 52.8959 27.374C51.0917 24.4612 49.1269 21.5714 46.8793 18.9798C44.8151 16.6022 42.6516 14.3087 40.5186 11.9999C37.5294 8.76602 34.6167 5.43278 31.4746 2.3442C30.1902 1.08277 28.2866 -0.797904 26.3448 0.364139C23.8984 1.83198 25.6797 5.57804 26.2377 7.60397C27.2928 11.3959 27.7744 15.3254 26.8417 19.2015C25.695 23.9643 23.0727 28.3526 19.5178 31.7087C18.6309 32.5497 17.683 33.36 16.6509 34.0175C15.6112 34.6826 14.6097 34.5832 13.417 34.3998C11.911 34.1704 9.36519 33.7882 8.7383 32.2056C8.45543 31.487 7.96615 30.9366 7.14813 30.8372C6.44479 30.7531 5.56562 31.0589 5.24453 31.7469C2.15594 38.3216 0.496964 45.2022 0.137648 52.4497C-0.0381871 55.9893 -0.152857 59.4907 0.489324 62.9921C1.05506 66.0731 2.19416 68.9705 3.55497 71.7763C5.2063 75.1936 7.35455 78.4886 10.0227 81.2026C11.7657 82.9609 14.4644 80.2546 12.7366 78.4962Z" fill="#333333"/>
<path d="M22.2776 83.0603C15.1066 75.2929 14.7778 63.0609 21.6431 54.9801C20.6416 54.8502 19.6401 54.7202 18.6386 54.5902C20.0606 57.8394 21.4826 61.0885 22.9045 64.3376C23.5238 65.752 25.4962 65.4003 26.2072 64.3376C31.6886 56.1651 37.4912 47.0064 36.7802 36.7391C35.5035 36.7391 34.2344 36.7391 32.9577 36.7391C33.3706 39.9424 35.1748 42.3047 37.2236 44.6899C39.1655 46.9452 40.8321 49.3381 41.9712 52.1056C44.4558 58.1375 44.7234 64.8728 43.6149 71.2411C42.9268 75.1936 41.7801 79.039 40.404 82.808C40.0523 83.7789 40.8015 84.9027 41.7418 85.1627C42.8045 85.4532 43.7372 84.8033 44.0965 83.8248C48.6682 71.2793 50.6254 55.9587 42.0476 44.5753C40.985 43.1686 39.7694 41.8919 38.6838 40.5081C37.8429 39.4302 36.9561 38.1382 36.7802 36.7468C36.6503 35.7223 36.0004 34.8355 34.869 34.8355C33.8904 34.8355 32.8889 35.7147 32.9577 36.7468C33.6228 46.3336 28.019 54.7966 22.9045 62.4187C24.0054 62.4187 25.1063 62.4187 26.2072 62.4187C24.7852 59.1696 23.3632 55.9205 21.9412 52.6713C21.4673 51.5857 19.6783 51.4176 18.9368 52.2815C14.9308 57.0061 12.6296 63.0839 12.8054 69.3069C12.9736 75.4153 15.443 81.2943 19.5789 85.7743C21.2456 87.5709 23.9442 84.8645 22.2776 83.0603Z" fill="#333333"/>
</svg>
