<svg width="64" height="97" viewBox="0 0 64 97" fill="none" xmlns="http://www.w3.org/2000/svg">
<path d="M2.09068 18.8775C1.55056 37.9585 1.0016 57.0484 0.46149 76.1294C0.310967 81.5571 0.151586 86.9936 0.00106297 92.4213C-0.0786257 95.2724 4.34852 95.2724 4.42821 92.4213C4.96832 73.3403 5.51729 54.2504 6.0574 35.1694C6.20793 29.7418 6.3673 24.3052 6.51782 18.8775C6.59751 16.0265 2.17037 16.0353 2.09068 18.8775Z" fill="#333333"/>
<path d="M58.2711 20.6218C58.8732 39.3664 59.5904 58.1109 59.5904 76.8643C59.5904 82.1592 59.5461 87.454 59.4576 92.7489C59.4045 95.6 63.8316 95.6 63.8847 92.7489C64.2035 73.9955 63.8228 55.2598 63.2118 36.5153C63.0436 31.2204 62.8665 25.9167 62.6983 20.6218C62.6097 17.7796 58.1826 17.7708 58.2711 20.6218Z" fill="#333333"/>
<path d="M53.9591 4.79036C54.393 4.569 54.818 4.3388 55.2518 4.11744C54.2424 3.85181 53.233 3.58617 52.2237 3.32054C52.5778 3.82524 52.1971 2.46168 52.206 3.29398C52.2148 3.62159 52.206 3.94035 52.206 4.26796C52.206 4.84349 52.1971 5.42787 52.1971 6.00339C52.1882 7.30498 52.1794 8.61542 52.1794 9.917C52.1705 12.4405 51.8872 15.1676 52.5778 17.6291C52.8966 18.7801 54.145 19.4973 55.305 19.1786C56.456 18.8598 57.1732 17.6114 56.8545 16.4515C56.5534 15.3801 56.5977 14.1936 56.6065 12.9629C56.6154 11.6613 56.6242 10.3509 56.6242 9.04927C56.6331 7.74769 56.6419 6.43726 56.6419 5.13568C56.6508 3.80753 56.8633 2.23147 56.0576 1.08041C55.3492 0.062166 54.1627 -0.309709 53.0294 0.283529C52.5955 0.504886 52.1705 0.735093 51.7367 0.95645C50.6742 1.51427 50.3554 2.98408 50.9398 3.98462C51.5596 5.06484 52.8966 5.34818 53.9591 4.79036Z" fill="#333333"/>
<path d="M5.85368 20.3739C15.0002 20.3651 24.1466 20.3562 33.302 20.3474C37.8354 20.3385 42.3776 20.3385 46.911 20.3297C49.1777 20.3297 51.4444 20.3208 53.72 20.3208C54.8445 20.3208 55.9778 20.2943 57.1023 20.3208C57.5893 20.3297 58.2977 20.2677 58.6784 20.6219C60.7591 22.561 63.8936 19.4442 61.8128 17.4874C59.3425 15.1765 55.2872 15.8848 52.1882 15.8937C48.4517 15.8937 44.724 15.9025 40.9875 15.9025C33.5233 15.9114 26.0592 15.9202 18.595 15.9291C14.3538 15.938 10.1037 15.9379 5.86253 15.9468C3.01145 15.9468 3.00259 20.3739 5.85368 20.3739Z" fill="#333333"/>
<path d="M0.452565 93.8026C1.25831 95.4937 3.01145 96.5297 4.80888 96.8219C6.98703 97.1672 9.1829 96.5474 11.3611 96.4323C15.6642 96.2109 20.0117 96.3703 24.3237 96.3349C33.0718 96.2641 41.811 96.0958 50.5501 95.901C53.0471 95.8479 55.544 95.7948 58.0409 95.7328C60.1305 95.6797 62.2998 95.3609 63.442 93.3776C64.8587 90.8984 61.0425 88.6671 59.6169 91.1463C59.3779 91.5624 56.5799 91.3411 56.0575 91.3588C54.145 91.403 52.2413 91.4473 50.3288 91.4916C46.3621 91.5802 42.3954 91.6598 38.4286 91.7307C30.6369 91.8723 22.8539 91.952 15.0621 91.952C12.822 91.952 10.6084 92.0051 8.38601 92.3062C7.11099 92.4833 4.9594 93.0323 4.25991 91.5713C3.74636 90.4911 2.20571 90.2077 1.23174 90.7744C0.151517 91.4208 -0.0609836 92.7223 0.452565 93.8026Z" fill="#333333"/>
<path d="M5.8006 20.489C21.4993 15.3536 37.1979 10.2092 52.8966 5.07372C55.5883 4.18829 54.4372 -0.088338 51.719 0.805946C36.0203 5.94144 20.3216 11.0858 4.62298 16.2213C1.93127 17.1067 3.08233 21.3833 5.8006 20.489Z" fill="#333333"/>
<path d="M19.6221 67.0892C27.6353 67.2929 35.6573 67.284 43.6616 67.0449C46.5038 66.9652 46.5126 62.5381 43.6616 62.6178C35.6484 62.848 27.6353 62.8657 19.6221 62.662C16.7799 62.5824 16.7799 67.0095 19.6221 67.0892Z" fill="#333333"/>
<path d="M25.7139 78.7503C29.8754 78.7149 34.0458 78.6795 38.2073 78.644C39.3672 78.6352 40.474 77.6346 40.4209 76.4305C40.3677 75.2351 39.4469 74.208 38.2073 74.2169C34.0458 74.2523 29.8754 74.2877 25.7139 74.3231C24.554 74.332 23.4472 75.3325 23.5003 76.5367C23.5534 77.7232 24.4743 78.7591 25.7139 78.7503Z" fill="#333333"/>
<path d="M16.6825 51.966C16.5232 51.966 16.3815 51.9129 16.2752 51.7978C16.169 51.6916 16.107 51.5499 16.3372 51.3905V43.9175C16.1159 43.7493 16.169 43.6076 16.2752 43.5014C16.3815 43.3951 16.5232 43.342 16.6825 43.342C16.9039 43.342 17.0721 43.4482 17.1872 43.6519L20.6404 50.5582H20.2862L23.6509 43.6519C23.766 43.4482 23.9342 43.342 24.1556 43.342C24.3149 43.342 24.4566 43.3951 24.5629 43.5014C24.6691 43.6076 24.7311 43.7493 24.2884 43.9175V51.3905C24.7311 51.5499 24.678 51.6916 24.5629 51.7978C24.4478 51.9041 24.3149 51.966 24.1556 51.966C23.9962 51.966 23.8545 51.9129 23.7483 51.7978C23.642 51.6916 23.4029 51.3905 23.4029 51.3905V45.5733L23.6154 45.5201L20.7821 51.2843C20.6581 51.4702 20.4987 51.5676 20.2951 51.5676C20.056 51.5676 19.8878 51.4525 19.7727 51.2312L16.9747 45.6264L17.1872 45.5733V51.3905C17.1872 51.3905 17.1695 51.6916 17.0633 51.7978C16.9747 51.9129 16.8419 51.966 16.6825 51.966Z" fill="#333333"/>
<path d="M27.529 51.4436C27.3696 51.966 27.228 51.9129 27.1217 51.8067C27.0155 51.7004 26.9623 51.3994 26.9623 51.3994V43.9264C26.9623 43.9264 27.0155 43.6164 27.1217 43.5102C27.228 43.4039 27.3696 43.3508 27.529 43.4836H32.5228C32.6911 43.3508 32.8327 43.4039 32.9301 43.5013C33.0364 43.5987 33.0807 43.7315 33.0807 43.8909C33.0807 44.0414 33.0275 44.1743 32.9301 44.2628C32.8239 44.3602 32.6911 44.4045 32.5228 44.3602H27.8389V47.0165H31.2655C31.4338 47.0873 31.5666 47.1405 31.6728 47.2378C31.7791 47.3352 31.8234 47.4681 31.8234 47.6186C31.8234 47.7691 31.7702 47.9019 31.6728 47.9993C31.5666 48.0967 31.4338 48.1498 31.2655 47.9019H27.8389V50.5582H32.514C32.6822 50.9124 32.8239 50.9566 32.9213 51.054C33.0275 51.1514 33.0718 51.2754 33.0718 51.4259C33.0718 51.5853 33.0187 51.7181 32.9213 51.8155C32.815 51.9129 32.6822 51.966 32.514 51.4436H27.529Z" fill="#333333"/>
<path d="M35.2411 51.9661C35.0817 51.9661 34.9489 51.9129 34.8338 51.7978C34.7276 51.6916 34.9135 51.3905 34.9135 51.3905V43.7404C34.9135 43.5633 34.9666 43.4128 35.0817 43.2977C35.1968 43.1826 35.3385 43.1295 35.5068 43.1295C35.6927 43.1295 35.8521 43.2003 35.976 43.3508L41.1027 50.1686V43.9086C41.1027 43.9086 40.536 43.5987 40.6511 43.4925C40.7573 43.3862 40.899 43.3331 41.0584 43.3331C41.2266 43.3331 41.3683 43.3862 41.4657 43.4925C41.5719 43.5987 41.9881 43.9086 41.9881 43.9086V51.5588C41.9881 51.7358 41.935 51.8775 41.8199 51.9926C41.7136 52.1077 41.5631 52.1697 41.386 52.1697C41.3063 52.1697 41.2266 52.152 41.1292 52.1166C41.0407 52.0812 40.9698 52.028 40.9079 51.9572L35.7812 45.1394V51.3817C35.7812 51.3817 35.737 51.6827 35.6307 51.789C35.551 51.9129 35.4182 51.9661 35.2411 51.9661Z" fill="#333333"/>
<path d="M47.3715 52.1343C46.672 52.1343 46.0434 52.0015 45.5033 51.7447C44.9631 51.4879 44.5381 51.1249 44.2371 50.6645C43.9361 50.204 43.7855 49.6728 43.7855 49.0795V43.9175C43.7855 43.9175 43.9095 43.6076 44.0246 43.5014C44.1308 43.3951 44.2725 43.342 44.4319 43.342C44.6001 43.342 44.7418 43.3951 44.848 43.5014C44.9543 43.6076 45.5564 43.9175 45.5564 43.9175V49.1593C45.5564 49.5223 45.6538 49.841 45.8486 50.1244C46.0434 50.4077 46.309 50.6202 46.6455 50.7796C46.9819 50.939 47.3715 51.0186 47.8142 51.0186C48.2392 51.0186 48.6111 50.939 48.9387 50.7796C49.2663 50.6202 49.5231 50.3989 49.709 50.1244C49.895 49.841 49.9835 49.5223 49.9835 49.1593V43.9175C49.9835 43.9175 49.895 43.6076 50.0101 43.5014C50.1163 43.3951 50.258 43.342 50.4174 43.342C50.5856 43.342 50.7184 43.3951 50.8247 43.5014C50.9309 43.6076 50.869 43.9175 50.869 43.9175V49.0795C50.869 49.6728 50.7184 50.204 50.4262 50.6645C50.1252 51.1249 49.7179 51.4879 49.1866 51.7447C48.6554 52.0103 48.0444 52.1343 47.3715 52.1343Z" fill="#333333"/>
</svg>
