<svg width="101" height="83" viewBox="0 0 101 83" fill="none" xmlns="http://www.w3.org/2000/svg">
<path d="M34.236 41.9047C33.9573 49.1592 34.1276 56.4138 33.9341 63.6683C33.8799 65.7355 33.9031 67.7795 34.0425 69.8467C34.1896 72.0223 34.0967 74.2444 34.3289 76.4122C34.5302 78.2704 35.2813 79.9582 36.853 81.0499C38.1769 81.9712 39.857 82.2964 41.4209 82.5209C43.4959 82.8229 45.5786 82.9545 47.669 82.8693C48.6058 82.8306 49.5349 82.7145 50.4717 82.6758C53.0344 82.5751 55.5971 82.5751 58.1599 82.5287C64.2298 82.4203 70.2921 82.6371 76.3621 82.699C79.2422 82.73 82.1223 82.637 85.0025 82.4899C87.2245 82.3738 89.4543 82.2654 91.6609 81.9789C93.6661 81.7234 95.594 81.2279 97.2044 79.9427C100.851 77.0316 100.464 71.7049 100.495 67.5085C100.534 63.3432 100.34 59.1855 100.363 55.0202C100.387 51.0793 100.433 47.1153 100.038 43.1899C99.86 41.3937 99.5426 39.6439 98.4664 38.1419C97.2818 36.4773 95.5785 35.4476 93.6352 34.8901C88.6259 33.4423 83.485 34.023 78.3751 34.201C71.2599 34.4488 64.1369 34.7353 57.0217 34.7895C53.9712 34.8127 50.944 34.5804 47.8935 34.6424C45.7102 34.6888 43.5036 34.6346 41.3203 34.7353C39.3383 34.8359 37.2943 35.3546 35.9394 36.9109C34.7161 38.3277 34.3135 40.0852 34.236 41.9047C34.1354 44.3977 38.0066 44.39 38.1072 41.9047C38.1537 40.8517 38.3395 39.4658 39.6247 38.9393C41.0416 38.3509 42.8301 38.6219 44.3243 38.6064C46.6393 38.5755 48.962 38.4671 51.2769 38.5058C52.5854 38.5213 53.8861 38.6451 55.1945 38.6684C61.7291 38.8 68.3023 38.4051 74.8368 38.2038C78.8164 38.08 82.8734 37.6541 86.8529 37.8012C88.7421 37.8709 90.6234 38.0877 92.4506 38.5909C93.8287 38.9703 95.0675 39.6439 95.6869 41.0453C95.8263 41.3549 95.9114 41.7034 95.9889 42.0363C96.0121 42.1214 96.1437 42.9266 96.0818 42.4776C96.2134 43.4144 96.2753 44.3745 96.3295 45.319C96.4457 47.2159 96.4844 49.1128 96.4921 51.0096C96.5154 54.4937 96.4844 57.97 96.5618 61.4463C96.616 63.7845 96.6469 66.1227 96.6082 68.4686C96.5773 70.4739 96.6857 72.6494 96.1824 74.6082C95.2301 78.3013 91.0879 78.2239 87.9833 78.4407C84.6154 78.673 81.232 78.8123 77.8563 78.8356C72.6535 78.8588 67.4506 78.5801 62.24 78.6033C57.463 78.6265 52.6938 78.7504 47.9322 78.9904C46.1128 79.0833 44.2701 79.0369 42.4584 78.7969C41.63 78.6885 40.786 78.5336 39.9886 78.2859C39.8105 78.2317 39.6324 78.1775 39.4621 78.1078C39.5395 78.1387 39.7099 78.2317 39.3925 78.0691C39.2454 77.9916 38.6569 77.5426 38.9743 77.8368C38.0143 76.9542 38.1459 75.607 38.1382 74.3915C38.1149 72.0533 37.875 69.7306 37.7898 67.3924C37.6737 64.3961 37.8672 61.3766 37.8749 58.3803C37.8749 55.0279 37.875 51.6755 37.9369 48.323C37.9756 46.1939 38.0375 44.057 38.1227 41.9279C38.2001 39.4116 34.329 39.4194 34.236 41.9047Z" fill="#333333"/>
<path d="M37.2943 53.9982C52.5622 53.704 67.8378 53.6343 83.1134 53.7891C87.4801 53.8356 91.839 53.8975 96.2057 53.975C98.6987 54.0214 98.6987 50.1502 96.2057 50.1038C80.9378 49.8251 65.6622 49.7631 50.3866 49.9257C46.0199 49.9722 41.661 50.0418 37.2943 50.1193C34.8013 50.1735 34.7935 54.0446 37.2943 53.9982Z" fill="#333333"/>
<path d="M38.1847 58.7984C53.4758 58.783 68.7669 58.6823 84.058 58.481C88.3627 58.4268 92.6752 58.3649 96.9799 58.2875C99.4652 58.2488 99.4729 54.3776 96.9799 54.4163C81.6965 54.6641 66.4132 54.8266 51.1221 54.8886C46.8096 54.9041 42.4972 54.9196 38.177 54.9196C35.6917 54.9273 35.6917 58.7984 38.1847 58.7984Z" fill="#333333"/>
<path d="M37.1007 56.7235C52.6318 55.6474 68.1784 54.6951 83.725 56.0964C88.022 56.4835 92.3654 56.9016 96.647 56.1119C97.6767 55.9183 98.2574 54.6796 98.0019 53.7273C97.7077 52.6433 96.6547 52.1865 95.6173 52.3724C92.0868 53.0227 88.3782 52.6356 84.8322 52.3182C80.992 51.9775 77.1518 51.6833 73.2961 51.5594C65.5693 51.3117 57.8347 51.5672 50.1233 52.0007C45.7799 52.2407 41.4442 52.5427 37.1085 52.8446C36.0633 52.9143 35.1729 53.6808 35.1729 54.7802C35.1652 55.779 36.0478 56.7932 37.1007 56.7235Z" fill="#333333"/>
<path d="M63.4168 22.0843C63.4168 22.0843 62.6658 21.4495 54.5209 13.1419C51.1917 9.74305 47.5451 6.63839 44.5178 2.96853C43.5965 1.85363 42.048 -0.0896937 40.0737 0.00321422C38.8195 0.0651528 37.9678 0.916805 36.6671 2.22526C34.6851 4.23052 32.4011 5.94933 30.5894 8.10169C27.9105 11.2838 28.8628 9.55725 19.4714 19.0571C12.9369 25.669 14.0982 25.0961 10.9781 27.7827C8.35343 30.0512 6.34041 32.9933 3.61511 35.1456C2.1673 36.2915 0.580106 37.3832 0.502682 39.0323C0.425259 40.7588 2.04342 42.1215 2.81765 42.7796C8.91087 48.0056 15.6002 55.7093 17.6133 58.0165C19.4637 60.1456 22.0805 61.5547 23.8226 63.769C24.1168 64.1407 24.9142 65.1936 26.3311 65.7201C27.2214 66.053 28.0499 66.0607 28.6073 66.0143C28.8086 65.5498 29.0022 65.0929 29.2035 64.6284C29.6293 58.512 30.0784 52.3568 30.5584 46.163C30.93 41.3395 31.3249 36.5393 31.7198 31.77C37.1316 31.9094 42.9694 31.8552 49.1632 31.5222C54.9235 31.2125 60.3354 30.6938 65.3757 30.0434C66.0028 29.6486 66.7305 29.0215 66.9783 28.1001C67.5048 26.0484 65.2518 23.8806 63.4168 22.0843ZM43.7436 13.0413C43.7359 13.0413 43.7359 13.0413 43.7281 13.049C43.6584 13.1497 43.5733 13.2348 43.4571 13.289C42.7371 14.0633 41.8545 14.6749 41.1034 15.4259C40.1279 16.4015 39.1679 17.3847 38.0762 18.2286C37.8207 18.4222 37.4336 18.5693 37.1394 18.3525C35.6761 17.2763 34.6541 15.7511 33.2605 14.6052C32.9353 14.342 32.9895 13.7846 33.2605 13.5136C33.276 13.4981 33.2992 13.4903 33.3147 13.4826C33.3843 13.3587 33.4695 13.2503 33.5857 13.1652C33.996 12.8632 34.4296 12.3987 34.8012 11.9883C35.1883 11.5625 35.5909 11.1522 36.0013 10.7418C36.791 9.95986 37.6039 9.20111 38.502 8.54301C38.533 8.5043 38.5717 8.48107 38.6104 8.44236C38.6414 8.41139 38.6646 8.38816 38.6956 8.36493C38.7188 8.3417 38.7343 8.31846 38.7575 8.30298C38.773 8.28749 38.7808 8.27202 38.7962 8.26428C38.8427 8.18685 38.9046 8.12492 38.9821 8.06298C38.9821 8.05524 38.9898 8.05523 38.9976 8.05523C39.0363 8.00103 39.0905 7.95459 39.1524 7.91587C39.1602 7.90813 39.1601 7.89264 39.1756 7.8849C39.4776 7.55198 39.9576 7.6294 40.2673 7.8849C41.0183 8.48106 41.7073 9.16239 42.3112 9.9134C42.8764 10.6102 43.6429 11.1831 44.0455 11.9961C44.2159 12.3755 44.1152 12.8013 43.7436 13.0413Z" fill="#333333"/>
<path d="M41.0802 64.853C41.0415 64.853 41.0028 64.8375 40.9718 64.8143C40.9408 64.7833 40.9253 64.7523 40.9253 64.7059V62.1896L40.5382 62.329C40.5073 62.3444 40.484 62.3445 40.4608 62.3445C40.4143 62.3445 40.3834 62.329 40.3524 62.3057C40.3215 62.2748 40.3137 62.2438 40.3137 62.2051C40.3137 62.1741 40.3214 62.1432 40.3369 62.1199C40.3524 62.0967 40.3756 62.0735 40.4143 62.058L41.0105 61.8567C41.026 61.8489 41.0337 61.849 41.0492 61.8412C41.0647 61.8412 41.0725 61.8335 41.088 61.8335C41.1344 61.8335 41.1653 61.8489 41.1963 61.8799C41.2273 61.9109 41.235 61.9419 41.235 61.9883V64.7136C41.235 64.7601 41.2195 64.791 41.1886 64.822C41.1576 64.8375 41.1267 64.853 41.0802 64.853Z" fill="#333333"/>
<path d="M42.0402 64.853C42.0015 64.853 41.9628 64.8375 41.9318 64.8143C41.9009 64.7833 41.8854 64.7523 41.8854 64.7059C41.8854 64.6672 41.9009 64.6362 41.9318 64.6052L43.1009 63.2193C43.1629 63.1497 43.2171 63.0722 43.2558 62.9871C43.2945 62.9019 43.3177 62.8167 43.3177 62.7471C43.3177 62.6232 43.2945 62.5225 43.248 62.4219C43.2016 62.329 43.1319 62.2593 43.0467 62.2051C42.9616 62.1509 42.8609 62.1277 42.7525 62.1277C42.6441 62.1277 42.5435 62.1586 42.4583 62.2128C42.3654 62.267 42.2957 62.3445 42.2493 62.4374C42.1951 62.5303 42.1718 62.6309 42.1718 62.7471C42.1718 62.7858 42.1564 62.8245 42.1331 62.8555C42.1022 62.8864 42.0712 62.8942 42.0247 62.8942C41.986 62.8942 41.9473 62.8787 41.9163 62.8555C41.8854 62.8245 41.8699 62.7935 41.8699 62.7471C41.8699 62.5767 41.9086 62.4219 41.986 62.2825C42.0635 62.1431 42.1718 62.0348 42.3034 61.9573C42.4351 61.8799 42.5899 61.8335 42.7525 61.8335C42.9151 61.8335 43.07 61.8722 43.2016 61.9496C43.3332 62.027 43.4338 62.1354 43.5112 62.2748C43.5809 62.4141 43.6196 62.569 43.6196 62.7471C43.6196 62.8322 43.6042 62.9174 43.5809 62.9948C43.5577 63.0722 43.519 63.1497 43.4725 63.2193C43.4261 63.289 43.3719 63.3587 43.3177 63.4206L42.3267 64.5743H43.5345C43.5732 64.5743 43.6119 64.5897 43.6429 64.6207C43.6739 64.6517 43.6893 64.6827 43.6893 64.7214C43.6893 64.7678 43.6739 64.7988 43.6429 64.8297C43.6119 64.8607 43.5809 64.8685 43.5345 64.8685H42.0402V64.853Z" fill="#333333"/>
<path d="M45.0287 64.8762C44.8507 64.8762 44.6881 64.8375 44.541 64.7601C44.3939 64.6826 44.2855 64.5742 44.2003 64.4349C44.1151 64.2955 44.0764 64.1407 44.0764 63.9704C44.0764 63.9239 44.0919 63.8852 44.1151 63.8542C44.1384 63.8232 44.1771 63.8078 44.2158 63.8078C44.2545 63.8078 44.2932 63.8232 44.3242 63.8542C44.3474 63.8852 44.3629 63.9239 44.3629 63.9704C44.3629 64.0865 44.3939 64.1949 44.4481 64.2878C44.5023 64.3807 44.5797 64.4581 44.6803 64.5123C44.781 64.5665 44.8894 64.5975 45.0132 64.5975C45.2145 64.5975 45.3694 64.5433 45.4856 64.4272C45.6017 64.3188 45.6559 64.1717 45.6559 63.9936C45.6559 63.8697 45.6249 63.7536 45.5707 63.6606C45.5165 63.5677 45.4391 63.4903 45.3462 63.4439C45.2533 63.3897 45.1526 63.3665 45.0365 63.3665C44.9978 63.3665 44.9591 63.351 44.9281 63.32C44.8971 63.289 44.8894 63.2581 44.8894 63.2116C44.8894 63.1729 44.9049 63.1342 44.9281 63.1109C44.9591 63.08 44.99 63.0645 45.0365 63.0645C45.1294 63.0645 45.2068 63.0413 45.2842 62.9948C45.3617 62.9484 45.4236 62.8864 45.4701 62.8167C45.5165 62.7393 45.5398 62.6619 45.5398 62.569C45.5398 62.4296 45.4933 62.3212 45.4004 62.2283C45.3074 62.1354 45.1836 62.089 45.0287 62.089C44.9203 62.089 44.8274 62.1122 44.7345 62.1509C44.6494 62.1896 44.5797 62.2516 44.5332 62.3212C44.4868 62.3909 44.4636 62.4761 44.4636 62.5612C44.4636 62.6077 44.4481 62.6387 44.4249 62.6696C44.4016 62.7006 44.3629 62.7161 44.3242 62.7161C44.2778 62.7161 44.2468 62.7006 44.2158 62.6696C44.1848 62.6387 44.1771 62.6077 44.1771 62.5612C44.1771 62.4219 44.2158 62.2903 44.2855 62.1741C44.3551 62.058 44.4558 61.9651 44.5874 61.9031C44.719 61.8412 44.8584 61.8025 45.021 61.8025C45.1681 61.8025 45.3075 61.8335 45.4236 61.9031C45.5397 61.9651 45.6404 62.058 45.7101 62.1741C45.7797 62.2903 45.8185 62.4141 45.8185 62.5612C45.8185 62.6464 45.7952 62.7316 45.7565 62.8167C45.7101 62.9019 45.6559 62.9716 45.5862 63.0413C45.5165 63.1109 45.4391 63.1574 45.3617 63.1961C45.4933 63.2348 45.6017 63.2968 45.6868 63.3742C45.772 63.4516 45.8417 63.5445 45.8804 63.6529C45.9191 63.7613 45.9423 63.8697 45.9423 63.9858C45.9423 64.1562 45.9036 64.311 45.8185 64.4426C45.7333 64.5742 45.6249 64.6826 45.4856 64.7601C45.3617 64.8375 45.1991 64.8762 45.0287 64.8762Z" fill="#333333"/>
<path d="M47.8625 64.853C47.8238 64.853 47.7928 64.8375 47.7618 64.8143C47.7309 64.7833 47.7231 64.7523 47.7231 64.7059V64.1329H46.3372C46.2985 64.1329 46.2598 64.1175 46.2366 64.0942C46.2133 64.071 46.1979 64.0323 46.1901 64.0013C46.1901 63.9626 46.1978 63.9316 46.2211 63.9007L47.7541 61.8954C47.7696 61.8799 47.7851 61.8644 47.8005 61.8489C47.8238 61.8412 47.847 61.8335 47.8779 61.8335C47.9167 61.8335 47.9554 61.8489 47.9786 61.8799C48.0018 61.9109 48.0173 61.9496 48.0173 61.9883V63.862H48.3193C48.358 63.862 48.3967 63.8697 48.4199 63.8929C48.4509 63.9162 48.4664 63.9471 48.4664 64.0013C48.4664 64.0323 48.4509 64.0633 48.4199 64.0942C48.3889 64.1252 48.358 64.1329 48.3193 64.1329H48.0173V64.7059C48.0173 64.7523 48.0018 64.7833 47.9709 64.8143C47.9476 64.8375 47.9089 64.853 47.8625 64.853ZM46.4998 63.9781L46.4456 63.862H47.7231V62.2051L47.8005 62.2825L46.4998 63.9781Z" fill="#333333"/>
<path d="M49.6741 64.8529C49.4883 64.8529 49.318 64.8065 49.1786 64.7213C49.0315 64.6362 48.9154 64.52 48.8303 64.3729C48.7451 64.2258 48.6986 64.0555 48.6986 63.8697C48.6986 63.8232 48.7141 63.7922 48.7373 63.7613C48.7683 63.7303 48.7993 63.7226 48.8457 63.7226C48.8922 63.7226 48.9231 63.738 48.9541 63.7613C48.9851 63.7922 49.0006 63.8232 49.0006 63.8697C49.0006 64.0013 49.0315 64.1174 49.0935 64.2181C49.1554 64.3187 49.2328 64.4039 49.3335 64.4658C49.4341 64.5278 49.5503 64.5587 49.6819 64.5587C49.8135 64.5587 49.9297 64.5278 50.0303 64.4658C50.131 64.4039 50.2161 64.3265 50.2781 64.2181C50.34 64.1174 50.371 64.0013 50.371 63.8697C50.371 63.7381 50.34 63.6219 50.2781 63.5213C50.2161 63.4206 50.1387 63.3354 50.0303 63.2735C49.9297 63.2116 49.8135 63.1806 49.6819 63.1806H49.0006C48.9541 63.1806 48.9231 63.1651 48.8922 63.1341C48.8612 63.1032 48.8535 63.0722 48.8535 63.0258V61.9651C48.8535 61.9264 48.8689 61.8876 48.8922 61.8567C48.9154 61.8257 48.9541 61.8102 49.0006 61.8102H50.3555C50.3942 61.8102 50.4329 61.8257 50.4639 61.8567C50.4949 61.8876 50.5103 61.9186 50.5103 61.9651C50.5103 62.0038 50.4949 62.0425 50.4716 62.0734C50.4407 62.1044 50.4097 62.1199 50.3632 62.1199H49.1477V62.8787H49.6741C49.86 62.8787 50.0303 62.9251 50.1774 63.0103C50.3245 63.0954 50.4406 63.2116 50.5258 63.3587C50.611 63.5058 50.6574 63.6761 50.6574 63.8619C50.6574 64.0477 50.611 64.2181 50.5258 64.3652C50.4406 64.5123 50.3245 64.6284 50.1774 64.7136C50.0303 64.8142 49.86 64.8529 49.6741 64.8529Z" fill="#333333"/>
<path d="M52.0278 64.853C51.8497 64.853 51.6949 64.8143 51.5633 64.7368C51.4316 64.6594 51.3155 64.551 51.2381 64.4116C51.1607 64.2723 51.1219 64.1175 51.1219 63.9471C51.1219 63.7768 51.1607 63.6219 51.2381 63.4826C51.3155 63.3432 51.4239 63.2348 51.5633 63.1574C51.7026 63.08 51.8575 63.0413 52.0278 63.0413C52.1981 63.0413 52.353 63.08 52.4924 63.1574C52.6317 63.2348 52.7401 63.3432 52.8175 63.4826C52.8949 63.6219 52.9337 63.7768 52.9337 63.9471C52.9337 64.1252 52.8949 64.28 52.8175 64.4116C52.7401 64.5433 52.6317 64.6594 52.4924 64.7368C52.3607 64.8143 52.2059 64.853 52.0278 64.853ZM51.2304 63.4826L52.1826 61.9109C52.2136 61.8567 52.2601 61.8257 52.322 61.8257C52.3607 61.8257 52.3917 61.8412 52.4227 61.8567C52.4536 61.8799 52.4691 61.9109 52.4769 61.9496C52.4846 61.9883 52.4769 62.0193 52.4537 62.0502L51.811 63.0955L51.2304 63.4826ZM52.0278 64.5743C52.1439 64.5743 52.2523 64.551 52.3452 64.4968C52.4382 64.4426 52.5156 64.3652 52.5698 64.2723C52.624 64.1794 52.6549 64.071 52.6549 63.9471C52.6549 63.8233 52.624 63.7148 52.5698 63.6219C52.5156 63.529 52.4382 63.4516 52.3452 63.3974C52.2523 63.3432 52.1439 63.3123 52.0278 63.3123C51.9117 63.3123 51.8033 63.3432 51.7104 63.3974C51.6175 63.4516 51.5478 63.529 51.4859 63.6219C51.4317 63.7148 51.4007 63.8233 51.4007 63.9471C51.4007 64.071 51.4317 64.1794 51.4859 64.2723C51.5401 64.3652 51.6097 64.4426 51.7104 64.4968C51.8033 64.551 51.9117 64.5743 52.0278 64.5743Z" fill="#333333"/>
<path d="M53.584 64.853C53.5453 64.853 53.5066 64.8375 53.4757 64.8143C53.4447 64.7833 53.4292 64.7523 53.4292 64.7059C53.4292 64.6904 53.4292 64.6749 53.4369 64.6672C53.4447 64.6594 53.4524 64.6362 53.4602 64.613L54.6138 62.1354H53.2821C53.2357 62.1354 53.2047 62.1199 53.1737 62.089C53.1427 62.058 53.1273 62.027 53.1273 61.9806C53.1273 61.9419 53.1427 61.9031 53.1737 61.8722C53.2047 61.8412 53.2434 61.8257 53.2821 61.8257H54.8615C54.9002 61.8257 54.939 61.8412 54.9622 61.8722C54.9932 61.9031 55.0086 61.9341 55.0086 61.9806C55.0086 61.9961 55.0086 62.0038 55.0009 62.0193C54.9931 62.0348 54.9931 62.0503 54.9854 62.058L53.7234 64.7678C53.6924 64.822 53.646 64.853 53.584 64.853Z" fill="#333333"/>
<path d="M56.108 64.8685C55.9377 64.8685 55.7829 64.8298 55.6435 64.7446C55.5042 64.6672 55.3957 64.551 55.3183 64.4117C55.2409 64.2723 55.2022 64.1175 55.2022 63.9394C55.2022 63.7691 55.2409 63.6142 55.3183 63.4826C55.3957 63.351 55.5042 63.2426 55.6435 63.1652C55.7829 63.0877 55.9377 63.049 56.108 63.049C56.2784 63.049 56.4333 63.0877 56.5726 63.1652C56.712 63.2426 56.8204 63.351 56.8978 63.4826C56.9752 63.6142 57.0139 63.7691 57.0139 63.9394C57.0139 64.1175 56.9675 64.2723 56.89 64.4117C56.8126 64.551 56.7042 64.6594 56.5649 64.7446C56.4332 64.8298 56.2784 64.8685 56.108 64.8685ZM56.108 63.2968C55.9687 63.2968 55.8371 63.2658 55.7209 63.1961C55.6048 63.1342 55.5197 63.0413 55.45 62.9329C55.388 62.8245 55.3493 62.6929 55.3493 62.5535C55.3493 62.4141 55.3803 62.2903 55.45 62.1819C55.5119 62.0735 55.6048 61.9806 55.7209 61.9186C55.8371 61.8567 55.9609 61.818 56.108 61.818C56.2474 61.818 56.379 61.849 56.4952 61.9109C56.6113 61.9728 56.6965 62.0657 56.7584 62.1741C56.8204 62.2825 56.8513 62.4141 56.8513 62.5535C56.8513 62.6929 56.8204 62.8245 56.7507 62.9329C56.6887 63.0413 56.5958 63.1342 56.4874 63.1961C56.379 63.2658 56.2474 63.2968 56.108 63.2968ZM56.108 64.5975C56.2242 64.5975 56.3248 64.5665 56.41 64.5123C56.5029 64.4504 56.5726 64.373 56.6268 64.28C56.681 64.1871 56.7042 64.071 56.7042 63.9471C56.7042 63.831 56.681 63.7226 56.6268 63.6297C56.5726 63.5368 56.5029 63.4594 56.41 63.4052C56.3171 63.351 56.2164 63.32 56.1003 63.32C55.9842 63.32 55.8835 63.351 55.7906 63.4052C55.6977 63.4594 55.628 63.5368 55.5738 63.6297C55.5196 63.7226 55.4964 63.831 55.4964 63.9471C55.4964 64.071 55.5196 64.1794 55.5738 64.28C55.628 64.3807 55.6977 64.4581 55.7906 64.5123C55.8913 64.5665 55.9919 64.5975 56.108 64.5975ZM56.108 63.0335C56.1932 63.0335 56.2706 63.0103 56.3403 62.9716C56.41 62.9329 56.4642 62.8709 56.5029 62.8013C56.5416 62.7238 56.5649 62.6464 56.5649 62.5535C56.5649 62.4683 56.5494 62.3909 56.5107 62.3212C56.472 62.2516 56.4177 62.1974 56.3481 62.1587C56.2784 62.1199 56.201 62.1045 56.1158 62.1045C55.9842 62.1045 55.8758 62.1509 55.7906 62.2361C55.7055 62.3212 55.659 62.4296 55.659 62.5613C55.659 62.7006 55.6977 62.809 55.7906 62.9019C55.8835 62.9948 55.9764 63.0335 56.108 63.0335Z" fill="#333333"/>
<path d="M58.183 61.8257C58.361 61.8257 58.5159 61.8644 58.6552 61.9418C58.7946 62.0193 58.903 62.1277 58.9805 62.267C59.0579 62.4064 59.0966 62.5612 59.0966 62.7316C59.0966 62.9019 59.0579 63.0568 58.9805 63.1961C58.903 63.3355 58.7946 63.4439 58.6552 63.5213C58.5159 63.5987 58.361 63.6374 58.183 63.6374C58.0126 63.6374 57.8578 63.5987 57.7184 63.5213C57.5791 63.4439 57.4707 63.3355 57.3933 63.1961C57.3159 63.0568 57.2771 62.9019 57.2771 62.7316C57.2771 62.5535 57.3159 62.3987 57.3933 62.267C57.4707 62.1277 57.5791 62.0193 57.7184 61.9418C57.8578 61.8644 58.0126 61.8257 58.183 61.8257ZM58.1907 62.1045C58.0746 62.1045 57.9662 62.1354 57.8733 62.1819C57.7804 62.2361 57.7029 62.3135 57.6487 62.4064C57.5946 62.4993 57.5636 62.6077 57.5636 62.7316C57.5636 62.8555 57.5946 62.9638 57.6487 63.0567C57.7029 63.1496 57.7804 63.2271 57.8733 63.2813C57.9662 63.3355 58.0746 63.3665 58.1907 63.3665C58.3069 63.3665 58.4153 63.3355 58.5082 63.2813C58.6011 63.2271 58.6785 63.1496 58.7327 63.0567C58.7869 62.9638 58.8178 62.8555 58.8178 62.7316C58.8178 62.6077 58.7869 62.4993 58.7327 62.4064C58.6785 62.3135 58.6011 62.2361 58.5082 62.1819C58.4153 62.1354 58.3069 62.1045 58.1907 62.1045ZM58.9805 63.1961L58.0281 64.7678C57.9971 64.822 57.9507 64.853 57.8888 64.853C57.85 64.853 57.8191 64.8452 57.7881 64.822C57.7571 64.7988 57.7417 64.7678 57.7339 64.7291C57.7262 64.6904 57.7339 64.6594 57.7572 64.6284L58.3998 63.591L58.9805 63.1961Z" fill="#333333"/>
</svg>
